<svg width="27" height="27" viewBox="0 0 27 27" fill="none" xmlns="http://www.w3.org/2000/svg">
<path d="M15.008 24.2357V26.9021H12.3416V24.2357H1.67597C1.30268 24.2357 0.987153 24.1068 0.729401 23.8491C0.471649 23.5913 0.342773 23.2758 0.342773 22.9025V4.2377H27.0068V22.9025C27.0068 23.2758 26.8779 23.5913 26.6201 23.8491C26.3624 24.1068 26.0469 24.2357 25.6736 24.2357H15.008ZM3.00917 21.5693H24.3404V6.9041H3.00917V21.5693ZM15.008 9.5705H21.674V12.2369H15.008V9.5705ZM15.008 14.9033H21.674V17.5697H15.008V14.9033ZM9.67517 9.5705V13.5701H13.6748C13.6748 14.2989 13.497 14.97 13.1415 15.5832C12.786 16.1965 12.3016 16.6809 11.6883 17.0364C11.075 17.3919 10.404 17.5697 9.67517 17.5697C8.94636 17.5697 8.27531 17.3919 7.66204 17.0364C7.04877 16.6809 6.56437 16.1965 6.20885 15.5832C5.85333 14.97 5.67557 14.2989 5.67557 13.5701C5.67557 12.8413 5.85333 12.1702 6.20885 11.557C6.56437 10.9437 7.04877 10.4593 7.66204 10.1038C8.27531 9.74826 8.94636 9.5705 9.67517 9.5705ZM0.342773 0.2381H27.0068V2.9045H0.342773V0.2381Z" fill="#B2DFDB"/>
</svg>
