<svg width="17" height="20" viewBox="0 0 17 20" fill="none" xmlns="http://www.w3.org/2000/svg">
<path d="M8.45951 5.66495C8.30546 5.66495 8.12178 5.6294 7.90848 5.5583C7.76628 5.52275 7.54706 5.4398 7.25081 5.30945C6.82421 5.14355 6.49833 5.03098 6.27318 4.97173C5.88213 4.85323 5.52663 4.7999 5.20668 4.81175C4.37718 4.8236 3.59804 5.05171 2.86927 5.49609C2.14049 5.94046 1.56281 6.53593 1.13621 7.28248C0.591106 8.23048 0.312631 9.35623 0.300781 10.6597C0.300781 11.8092 0.508156 13.0001 0.922906 14.2325C1.29026 15.3583 1.77611 16.3536 2.38046 17.2187C2.74781 17.7401 3.04406 18.1371 3.26921 18.4096C3.62471 18.8244 3.96836 19.1384 4.30016 19.3517C4.69121 19.6005 5.08818 19.719 5.49108 19.7072C5.75178 19.6953 6.00656 19.6539 6.25541 19.5828C6.40946 19.5354 6.62868 19.4524 6.91308 19.3339C7.24488 19.1917 7.50558 19.091 7.69518 19.0317C8.02698 18.9488 8.36767 18.9073 8.71724 18.9073C9.06682 18.9073 9.39566 18.9488 9.70376 19.0317C9.88151 19.0791 10.1244 19.171 10.4325 19.3073C10.7406 19.4435 10.9776 19.5354 11.1435 19.5828C11.4161 19.6539 11.6946 19.6894 11.979 19.6894C12.3937 19.6776 12.7907 19.5531 13.1699 19.3161C13.4898 19.1147 13.8157 18.8184 14.1475 18.4274C14.3608 18.1667 14.6452 17.7756 15.0007 17.2542C15.3918 16.6736 15.7354 16.0456 16.0317 15.3701C16.1857 15.0146 16.2983 14.7124 16.3694 14.4636C16.1916 14.4043 15.9606 14.274 15.6762 14.0725C15.1548 13.7289 14.7341 13.3141 14.4141 12.8283C13.9638 12.141 13.7328 11.3529 13.7209 10.4642C13.7091 9.7295 13.8809 9.0422 14.2364 8.4023C14.4971 7.94015 14.8348 7.5254 15.2496 7.15805C15.4747 6.96845 15.6762 6.82625 15.8539 6.73145C15.3444 5.9849 14.6748 5.44573 13.8453 5.11393C13.3595 4.92433 12.8262 4.81175 12.2456 4.7762C11.7953 4.74065 11.3213 4.78805 10.8236 4.9184C10.5273 4.9895 10.1185 5.1317 9.59711 5.345C9.30086 5.45165 9.09348 5.52868 8.97498 5.57608C8.76168 5.63533 8.58986 5.66495 8.45951 5.66495ZM11.2324 3.15868C11.5998 2.72023 11.8723 2.23438 12.0501 1.70113C12.2515 1.12048 12.3226 0.557602 12.2634 0.0125016C11.7657 0.0243516 11.2472 0.169514 10.708 0.447989C10.1689 0.726464 9.72153 1.07308 9.36603 1.48783C9.01053 1.90258 8.73206 2.36473 8.53061 2.87428C8.31731 3.45493 8.24621 4.01188 8.31731 4.54513C8.83871 4.59253 9.37196 4.47403 9.91706 4.18963C10.4266 3.94078 10.8651 3.59713 11.2324 3.15868Z" fill="white"/>
</svg>
