<svg width="28" height="27" viewBox="0 0 28 27" fill="none" xmlns="http://www.w3.org/2000/svg">
<path d="M14.0049 0.2381C15.8186 0.2381 17.5523 0.54918 19.206 1.17134C20.7885 1.77572 22.1977 2.62453 23.4335 3.71775C24.6693 4.81098 25.625 6.05974 26.3007 7.46404C26.9942 8.93945 27.3409 10.4771 27.3409 12.0769C27.3409 13.4279 27.0031 14.6811 26.3274 15.8365C25.6695 16.9387 24.7804 17.8186 23.6602 18.4763C22.5222 19.1518 21.2775 19.4895 19.9261 19.4895H17.3123C16.6899 19.4895 16.1654 19.7073 15.7386 20.1428C15.3119 20.5783 15.0985 21.1071 15.0985 21.7293C15.0985 22.2803 15.2852 22.7692 15.6586 23.1958C16.032 23.6224 16.2187 24.1202 16.2187 24.689C16.2187 25.2934 16.0009 25.8133 15.5653 26.2488C15.1296 26.6843 14.6095 26.9021 14.0049 26.9021C12.1912 26.9021 10.4576 26.5555 8.8039 25.8622C7.22137 25.1867 5.8122 24.2313 4.57639 22.9958C3.34059 21.7604 2.38484 20.3516 1.70915 18.7696C1.01568 17.1164 0.668945 15.3833 0.668945 13.5701C0.668945 11.7569 1.01568 10.0238 1.70915 8.37062C2.38484 6.78856 3.34059 5.37981 4.57639 4.14438C5.8122 2.90894 7.22137 1.95348 8.8039 1.278C10.4576 0.584732 12.1912 0.2381 14.0049 0.2381ZM12.4313 21.7293C12.4313 20.8405 12.6491 20.0228 13.0848 19.2762C13.5204 18.5296 14.1116 17.9341 14.8584 17.4897C15.6053 17.0453 16.4232 16.8231 17.3123 16.8231H19.9261C20.7796 16.8231 21.5709 16.6098 22.2999 16.1832C23.029 15.7565 23.6069 15.1833 24.0336 14.4633C24.4604 13.7434 24.6737 12.9479 24.6737 12.0769C24.6737 10.4415 24.1936 8.91279 23.2335 7.49071C22.291 6.10418 21.0197 5.00207 19.4194 4.18437C17.7657 3.33112 15.9653 2.9045 14.0183 2.9045C12.0712 2.9045 10.2709 3.39334 8.6172 4.37102C7.01688 5.31315 5.74552 6.58413 4.80311 8.18397C3.82513 9.83714 3.33615 11.6325 3.33615 13.5701C3.33615 15.401 3.77179 17.1164 4.64307 18.7163C5.49658 20.2628 6.66125 21.516 8.1371 22.4759C9.64852 23.4713 11.3022 24.0491 13.0981 24.209C12.6536 23.4269 12.4313 22.6003 12.4313 21.7293ZM8.00374 13.5701C7.45252 13.5701 6.98132 13.3746 6.59013 12.9835C6.19894 12.5924 6.00334 12.1214 6.00334 11.5703C6.00334 11.0192 6.19894 10.5482 6.59013 10.1571C6.98132 9.76604 7.45252 9.5705 8.00374 9.5705C8.55497 9.5705 9.02617 9.76604 9.41736 10.1571C9.80855 10.5482 10.0041 11.0192 10.0041 11.5703C10.0041 12.1214 9.80855 12.5924 9.41736 12.9835C9.02617 13.3746 8.55497 13.5701 8.00374 13.5701ZM20.0061 13.5701C19.4549 13.5701 18.9837 13.3746 18.5925 12.9835C18.2013 12.5924 18.0057 12.1214 18.0057 11.5703C18.0057 11.0192 18.2013 10.5482 18.5925 10.1571C18.9837 9.76604 19.4549 9.5705 20.0061 9.5705C20.5574 9.5705 21.0286 9.76604 21.4198 10.1571C21.8109 10.5482 22.0065 11.0192 22.0065 11.5703C22.0065 12.1214 21.8109 12.5924 21.4198 12.9835C21.0286 13.3746 20.5574 13.5701 20.0061 13.5701ZM14.0049 9.5705C13.4537 9.5705 12.9825 9.37496 12.5913 8.98389C12.2001 8.59282 12.0045 8.12176 12.0045 7.5707C12.0045 7.01964 12.2001 6.54858 12.5913 6.15751C12.9825 5.76644 13.4537 5.5709 14.0049 5.5709C14.5562 5.5709 15.0274 5.76644 15.4186 6.15751C15.8097 6.54858 16.0053 7.01964 16.0053 7.5707C16.0053 8.12176 15.8097 8.59282 15.4186 8.98389C15.0274 9.37496 14.5562 9.5705 14.0049 9.5705Z" fill="#D1C4E9"/>
</svg>
