<svg width="27" height="25" viewBox="0 0 27 25" fill="none" xmlns="http://www.w3.org/2000/svg">
<path d="M25.3337 0.571248C25.707 0.571248 26.0225 0.700124 26.2803 0.957876C26.5381 1.21563 26.6669 1.53115 26.6669 1.90445V23.2356C26.6669 23.6089 26.5381 23.9245 26.2803 24.1822C26.0225 24.44 25.707 24.5688 25.3337 24.5688H1.33613C0.962834 24.5688 0.64731 24.44 0.389558 24.1822C0.131806 23.9245 0.00292969 23.6089 0.00292969 23.2356V1.90445C0.00292969 1.53115 0.131806 1.21563 0.389558 0.957876C0.64731 0.700124 0.962834 0.571248 1.33613 0.571248H25.3337ZM6.66893 3.23765H2.66933V21.9024H6.66893V3.23765ZM24.0005 3.23765H9.33533V21.9024H24.0005V3.23765Z" fill="#B2DFDB"/>
</svg>
