<svg width="23" height="23" viewBox="0 0 23 23" fill="none" xmlns="http://www.w3.org/2000/svg">
<path d="M11.3348 20.418C10.1261 20.418 8.97069 20.1868 7.86864 19.7244C6.81399 19.2739 5.87488 18.6367 5.0513 17.8127C4.22773 16.9887 3.59079 16.0492 3.14049 14.9941C2.67834 13.8915 2.44727 12.7356 2.44727 11.5263C2.44727 10.317 2.67834 9.16112 3.14049 8.05855C3.59079 7.00341 4.22773 6.06386 5.0513 5.23989C5.87488 4.41593 6.81399 3.7787 7.86864 3.32819C8.97069 2.86582 10.1261 2.63464 11.3348 2.63464C12.5435 2.63464 13.6988 2.86582 14.8009 3.32819C15.8555 3.7787 16.7947 4.41593 17.6182 5.23989C18.4418 6.06386 19.0787 7.00341 19.529 8.05855C19.9912 9.16112 20.2223 10.317 20.2223 11.5263C20.2223 12.7356 19.9912 13.8915 19.529 14.9941C19.0787 16.0492 18.4418 16.9887 17.6182 17.8127C16.7947 18.6367 15.8555 19.2739 14.8009 19.7244C13.6988 20.1868 12.5435 20.418 11.3348 20.418ZM9.30842 18.3373C8.41967 16.4641 7.91604 14.4902 7.79754 12.4155H4.27809C4.39659 13.3402 4.68395 14.2057 5.14018 15.0118C5.5964 15.818 6.18298 16.5086 6.8999 17.0836C7.61683 17.6586 8.41967 18.0765 9.30842 18.3373ZM9.59282 12.4155C9.72317 14.5495 10.3038 16.5531 11.3348 18.4262C12.3657 16.5531 12.9464 14.5495 13.0767 12.4155H9.59282ZM18.3914 12.4155H14.872C14.7535 14.4902 14.2558 16.4641 13.3789 18.3373C14.2558 18.0765 15.0527 17.6586 15.7696 17.0836C16.4866 16.5086 17.0731 15.818 17.5294 15.0118C17.9856 14.2057 18.2729 13.3402 18.3914 12.4155ZM4.27809 10.6371H7.79754C7.91604 8.56241 8.41967 6.58846 9.30842 4.71529C8.41967 4.97611 7.61683 5.39402 6.8999 5.96901C6.18298 6.54401 5.5964 7.23459 5.14018 8.04077C4.68395 8.84695 4.39659 9.7124 4.27809 10.6371ZM9.59282 10.6371H13.0767C12.9464 8.50314 12.3657 6.49955 11.3348 4.62637C10.3038 6.49955 9.72317 8.50314 9.59282 10.6371ZM13.3789 4.71529C14.2558 6.58846 14.7535 8.56241 14.872 10.6371H18.3914C18.2729 9.7124 17.9856 8.84695 17.5294 8.04077C17.0731 7.23459 16.4866 6.54401 15.7696 5.96901C15.0527 5.39402 14.2558 4.97611 13.3789 4.71529Z" fill="#1F2937"/>
</svg>
