<svg width="25" height="31" viewBox="0 0 25 31" fill="none" xmlns="http://www.w3.org/2000/svg">
<path d="M12.6746 0.904952L23.6335 3.33138C23.9357 3.40248 24.1845 3.56246 24.3801 3.81133C24.5756 4.06019 24.6734 4.33572 24.6734 4.63791V17.9432C24.6734 19.2942 24.3579 20.5563 23.7268 21.7295C23.0958 22.9028 22.2203 23.8627 21.1004 24.6092L12.6746 30.2354L4.24876 24.6092C3.12887 23.8627 2.2534 22.9028 1.62235 21.7295C0.991305 20.5563 0.675781 19.2942 0.675781 17.9432V4.63791C0.675781 4.33572 0.773549 4.06019 0.969085 3.81133C1.16462 3.56246 1.41349 3.40248 1.71568 3.33138L12.6746 0.904952ZM12.6746 3.62468L3.34218 5.70447V17.9432C3.34218 18.8498 3.55105 19.6942 3.96879 20.4763C4.38652 21.2585 4.96869 21.8984 5.71528 22.3961L12.6746 27.0357L19.6339 22.3961C20.3805 21.8984 20.9626 21.2585 21.3804 20.4763C21.7981 19.6942 22.007 18.8498 22.007 17.9432V5.70447L12.6746 3.62468ZM18.6207 10.5307L20.4871 12.4238L12.008 20.903L6.35521 15.2502L8.24836 13.357L12.008 17.1433L18.6207 10.5307Z" fill="#D1C4E9"/>
</svg>
