<svg width="30" height="27" viewBox="0 0 30 27" fill="none" xmlns="http://www.w3.org/2000/svg">
<path d="M15.0046 0.904553C16.6938 0.904553 18.2674 1.33118 19.7255 2.18443C21.1302 3.00212 22.2416 4.11312 23.0595 5.51743C23.913 6.97506 24.3398 8.54823 24.3398 10.237V10.6902C25.3711 11.0458 26.2913 11.5968 27.1003 12.3434C27.9094 13.09 28.5406 13.9744 28.994 14.9965C29.4474 16.0186 29.6742 17.0985 29.6742 18.2362C29.6742 19.676 29.3096 21.0181 28.5806 22.2624C27.8694 23.4712 26.9092 24.4311 25.7 25.1421C24.4553 25.8709 23.1128 26.2354 21.6726 26.2354H8.33656C6.89627 26.2354 5.55378 25.8709 4.30909 25.1421C3.09996 24.4311 2.13977 23.4712 1.42851 22.2624C0.699478 21.0181 0.334961 19.676 0.334961 18.2362C0.334961 17.0985 0.561673 16.0186 1.0151 14.9965C1.46852 13.9744 2.09976 13.09 2.90881 12.3434C3.71786 11.5968 4.63804 11.0458 5.66936 10.6902V10.237C5.66936 8.54823 6.09611 6.97506 6.94962 5.51743C7.76756 4.11312 8.87889 3.00212 10.2836 2.18443C11.7417 1.33118 13.3153 0.904553 15.0046 0.904553ZM15.0046 3.57095C13.7954 3.57095 12.6797 3.8687 11.6572 4.4642C10.6348 5.05969 9.82575 5.8685 9.23007 6.89062C8.6344 7.91274 8.33656 9.02818 8.33656 10.237L8.44325 12.5567L6.57621 13.1967C5.50933 13.57 4.64693 14.2188 3.98902 15.1431C3.33112 16.0675 3.00216 17.0985 3.00216 18.2362C3.00216 19.1961 3.24221 20.0849 3.7223 20.9026C4.2024 21.7202 4.85142 22.3691 5.66936 22.849C6.4873 23.329 7.37637 23.569 8.33656 23.569H21.6726C22.6328 23.569 23.5218 23.329 24.3398 22.849C25.1577 22.3691 25.8067 21.7202 26.2868 20.9026C26.7669 20.0849 27.007 19.1961 27.007 18.2362C27.007 17.2762 26.7669 16.3874 26.2868 15.5698C25.8067 14.7521 25.1577 14.1032 24.3398 13.6233C23.5218 13.1433 22.6328 12.9034 21.6726 12.9034C20.5168 12.9034 19.4721 13.2411 18.5386 13.9166C17.6051 14.5921 16.9605 15.472 16.6049 16.5563L14.071 15.7031C14.4267 14.6543 14.9779 13.7122 15.7247 12.8767C16.4715 12.0412 17.3606 11.3924 18.3919 10.9302C19.4232 10.468 20.5168 10.237 21.6726 10.237C21.6726 9.02818 21.3747 7.91274 20.779 6.89062C20.1834 5.8685 19.3743 5.05969 18.3519 4.4642C17.3295 3.8687 16.2137 3.57095 15.0046 3.57095Z" fill="#B2DFDB"/>
</svg>
