<svg width="17" height="19" viewBox="0 0 17 19" fill="none" xmlns="http://www.w3.org/2000/svg">
<path d="M1.36919 0.812277L10.4167 9.85975L1.36919 18.9072C1.19144 18.8361 1.05516 18.7117 0.960362 18.534C0.877413 18.4036 0.835938 18.2555 0.835938 18.0896V1.62993C0.835938 1.44033 0.8863 1.27146 0.987025 1.12334C1.08775 0.975215 1.21514 0.871527 1.36919 0.812277ZM11.0566 10.4819L13.1007 12.526L3.37776 18.1607L11.0566 10.4819ZM13.9006 7.63788L16.3891 9.09543C16.6024 9.21393 16.7416 9.39168 16.8068 9.62868C16.8719 9.86568 16.8394 10.0908 16.709 10.3041C16.6379 10.4463 16.5313 10.553 16.3891 10.6241L13.9006 12.0816L11.6787 9.85975L13.9006 7.63788ZM3.37776 1.55883L13.1007 7.17573L11.0566 9.23763L3.37776 1.55883Z" fill="white"/>
</svg>
