<svg width="41" height="41" viewBox="0 0 41 41" fill="none" xmlns="http://www.w3.org/2000/svg">
<rect x="0.330078" y="0.859863" width="40" height="40" rx="20" fill="#E5E7EB"/>
<path d="M14.9971 27.8599C14.9971 26.891 15.2415 25.9932 15.7304 25.1665C16.2015 24.3665 16.8371 23.731 17.6371 23.2599C18.4637 22.771 19.3615 22.5265 20.3304 22.5265C21.2993 22.5265 22.1971 22.771 23.0237 23.2599C23.8237 23.731 24.4593 24.3665 24.9304 25.1665C25.4193 25.9932 25.6637 26.891 25.6637 27.8599H24.3304C24.3304 27.1399 24.1482 26.4688 23.7837 25.8465C23.4282 25.2421 22.9482 24.7621 22.3437 24.4065C21.7215 24.0421 21.0504 23.8599 20.3304 23.8599C19.6104 23.8599 18.9393 24.0421 18.3171 24.4065C17.7126 24.7621 17.2326 25.2421 16.8771 25.8465C16.5126 26.4688 16.3304 27.1399 16.3304 27.8599H14.9971ZM20.3304 21.8599C19.6015 21.8599 18.9304 21.6776 18.3171 21.3132C17.7126 20.9576 17.2326 20.4776 16.8771 19.8732C16.5126 19.2599 16.3304 18.5888 16.3304 17.8599C16.3304 17.131 16.5126 16.4599 16.8771 15.8465C17.2326 15.2421 17.7126 14.7621 18.3171 14.4065C18.9304 14.0421 19.6015 13.8599 20.3304 13.8599C21.0593 13.8599 21.7304 14.0421 22.3437 14.4065C22.9482 14.7621 23.4282 15.2421 23.7837 15.8465C24.1482 16.4599 24.3304 17.131 24.3304 17.8599C24.3304 18.5888 24.1482 19.2599 23.7837 19.8732C23.4282 20.4776 22.9482 20.9576 22.3437 21.3132C21.7304 21.6776 21.0593 21.8599 20.3304 21.8599ZM20.3304 20.5265C20.8104 20.5265 21.2548 20.4065 21.6637 20.1665C22.0726 19.9265 22.3971 19.6021 22.6371 19.1932C22.8771 18.7843 22.9971 18.3399 22.9971 17.8599C22.9971 17.3799 22.8771 16.9354 22.6371 16.5265C22.3971 16.1176 22.0726 15.7932 21.6637 15.5532C21.2548 15.3132 20.8104 15.1932 20.3304 15.1932C19.8504 15.1932 19.406 15.3132 18.9971 15.5532C18.5882 15.7932 18.2637 16.1176 18.0237 16.5265C17.7837 16.9354 17.6637 17.3799 17.6637 17.8599C17.6637 18.3399 17.7837 18.7843 18.0237 19.1932C18.2637 19.6021 18.5882 19.9265 18.9971 20.1665C19.406 20.4065 19.8504 20.5265 20.3304 20.5265Z" fill="#6B7280"/>
</svg>
