<svg width="15" height="13" viewBox="0 0 15 13" fill="none" xmlns="http://www.w3.org/2000/svg">
<path d="M7.3354 0.860351C8.50874 0.860351 9.61985 1.12702 10.6687 1.66035C11.6732 2.17591 12.5198 2.88924 13.2087 3.80035C13.8976 4.71146 14.3443 5.73146 14.5487 6.86035C14.3443 7.98924 13.8976 9.00924 13.2087 9.92035C12.5198 10.8315 11.6732 11.5448 10.6687 12.0604C9.61985 12.5937 8.50874 12.8604 7.3354 12.8604C6.16207 12.8604 5.05096 12.5937 4.00207 12.0604C2.99763 11.5448 2.15096 10.8315 1.46207 9.92035C0.773181 9.00924 0.326515 7.98924 0.12207 6.86035C0.326515 5.73146 0.773181 4.71146 1.46207 3.80035C2.15096 2.88924 2.99763 2.17591 4.00207 1.66035C5.05096 1.12702 6.16207 0.860351 7.3354 0.860351ZM7.3354 11.527C8.25985 11.527 9.13985 11.3226 9.9754 10.9137C10.7843 10.5226 11.471 9.97146 12.0354 9.26035C12.5998 8.54924 12.9843 7.74924 13.1887 6.86035C12.9843 5.97146 12.5998 5.17146 12.0354 4.46035C11.471 3.74924 10.7843 3.19813 9.9754 2.80702C9.13985 2.39813 8.25985 2.19368 7.3354 2.19368C6.41096 2.19368 5.53096 2.39813 4.6954 2.80702C3.88651 3.19813 3.19985 3.74924 2.6354 4.46035C2.07096 5.17146 1.68651 5.97146 1.48207 6.86035C1.68651 7.74924 2.07096 8.54924 2.6354 9.26035C3.19985 9.97146 3.88651 10.5226 4.6954 10.9137C5.53096 11.3226 6.41096 11.527 7.3354 11.527ZM7.3354 9.86035C6.79318 9.86035 6.29318 9.7248 5.8354 9.45368C5.37763 9.18257 5.01318 8.81813 4.74207 8.36035C4.47096 7.90257 4.3354 7.40257 4.3354 6.86035C4.3354 6.31813 4.47096 5.81813 4.74207 5.36035C5.01318 4.90257 5.37763 4.53813 5.8354 4.26702C6.29318 3.99591 6.79318 3.86035 7.3354 3.86035C7.87763 3.86035 8.37763 3.99591 8.8354 4.26702C9.29318 4.53813 9.65763 4.90257 9.92874 5.36035C10.1998 5.81813 10.3354 6.31813 10.3354 6.86035C10.3354 7.40257 10.1998 7.90257 9.92874 8.36035C9.65763 8.81813 9.29318 9.18257 8.8354 9.45368C8.37763 9.7248 7.87763 9.86035 7.3354 9.86035ZM7.3354 8.52702C7.63763 8.52702 7.9154 8.45146 8.16874 8.30035C8.42207 8.14924 8.62429 7.94702 8.7754 7.69368C8.92651 7.44035 9.00207 7.16257 9.00207 6.86035C9.00207 6.55813 8.92651 6.28035 8.7754 6.02702C8.62429 5.77368 8.42207 5.57146 8.16874 5.42035C7.9154 5.26924 7.63763 5.19368 7.3354 5.19368C7.03318 5.19368 6.7554 5.26924 6.50207 5.42035C6.24874 5.57146 6.04651 5.77368 5.8954 6.02702C5.74429 6.28035 5.66874 6.55813 5.66874 6.86035C5.66874 7.16257 5.74429 7.44035 5.8954 7.69368C6.04651 7.94702 6.24874 8.14924 6.50207 8.30035C6.7554 8.45146 7.03318 8.52702 7.3354 8.52702Z" fill="white"/>
</svg>
