<svg width="14" height="14" viewBox="0 0 14 14" fill="none" xmlns="http://www.w3.org/2000/svg">
<path d="M5.33464 1.52686C5.57464 1.52686 5.79686 1.58686 6.0013 1.70686C6.20575 1.82686 6.36797 1.98908 6.48797 2.19352C6.60797 2.39797 6.66797 2.62019 6.66797 2.86019V7.40686C6.10797 6.98019 5.36575 6.6913 4.4413 6.54019L4.22797 7.84686C5.09019 7.99797 5.71241 8.28019 6.09464 8.69352C6.47686 9.10686 6.66797 9.71797 6.66797 10.5269C6.66797 10.8291 6.59241 11.1069 6.4413 11.3602C6.29019 11.6135 6.08797 11.8157 5.83464 11.9669C5.5813 12.118 5.30352 12.1935 5.0013 12.1935C4.69908 12.1935 4.4213 12.118 4.16797 11.9669C3.91464 11.8157 3.71241 11.6135 3.5613 11.3602C3.41019 11.1069 3.33464 10.8291 3.33464 10.5269V10.2869C3.63686 10.3935 3.93464 10.4691 4.22797 10.5135L4.4413 9.20686C3.99686 9.12686 3.49908 8.95797 2.94797 8.70019C2.66352 8.56686 2.43464 8.36463 2.2613 8.09352C2.08797 7.82241 2.0013 7.52241 2.0013 7.19352C2.0013 6.66019 2.12575 6.22241 2.37464 5.88019C2.62352 5.53797 2.99686 5.30463 3.49464 5.18019L4.0013 5.04686V2.86019C4.0013 2.62019 4.0613 2.39797 4.1813 2.19352C4.3013 1.98908 4.46352 1.82686 4.66797 1.70686C4.87241 1.58686 5.09464 1.52686 5.33464 1.52686ZM7.33464 1.10019C7.08575 0.815744 6.78797 0.593522 6.4413 0.433522C6.09464 0.273522 5.72575 0.193522 5.33464 0.193522C4.85464 0.193522 4.41019 0.313522 4.0013 0.553522C3.59241 0.793522 3.26797 1.11797 3.02797 1.52686C2.78797 1.93574 2.66797 2.38019 2.66797 2.86019V4.04686C2.09019 4.27797 1.63241 4.62463 1.29464 5.08686C0.876858 5.66463 0.667969 6.36686 0.667969 7.19352C0.667969 7.70908 0.787969 8.18463 1.02797 8.62019C1.26797 9.05574 1.59241 9.4113 2.0013 9.68686V10.5269C2.0013 11.0691 2.13686 11.5691 2.40797 12.0269C2.67908 12.4846 3.04352 12.8491 3.5013 13.1202C3.95908 13.3913 4.45908 13.5269 5.0013 13.5269C5.46352 13.5269 5.89686 13.4269 6.3013 13.2269C6.70575 13.0269 7.05019 12.7535 7.33464 12.4069C7.61908 12.7535 7.96352 13.0269 8.36797 13.2269C8.77241 13.4269 9.20575 13.5269 9.66797 13.5269C10.2102 13.5269 10.7102 13.3913 11.168 13.1202C11.6257 12.8491 11.9902 12.4846 12.2613 12.0269C12.5324 11.5691 12.668 11.0691 12.668 10.5269V9.68686C13.0769 9.4113 13.4013 9.05574 13.6413 8.62019C13.8813 8.18463 14.0013 7.70908 14.0013 7.19352C14.0013 6.36686 13.7924 5.66463 13.3746 5.08686C13.0369 4.62463 12.5791 4.27797 12.0013 4.04686V2.86019C12.0013 2.38019 11.8813 1.93574 11.6413 1.52686C11.4013 1.11797 11.0769 0.793522 10.668 0.553522C10.2591 0.313522 9.81464 0.193522 9.33464 0.193522C8.94352 0.193522 8.57464 0.273522 8.22797 0.433522C7.8813 0.593522 7.58352 0.815744 7.33464 1.10019ZM11.3346 10.2869V10.5269C11.3346 10.8291 11.2591 11.1069 11.108 11.3602C10.9569 11.6135 10.7546 11.8157 10.5013 11.9669C10.248 12.118 9.97019 12.1935 9.66797 12.1935C9.36575 12.1935 9.08797 12.118 8.83464 11.9669C8.5813 11.8157 8.37908 11.6135 8.22797 11.3602C8.07686 11.1069 8.0013 10.8291 8.0013 10.5269C8.0013 9.71797 8.19241 9.10686 8.57464 8.69352C8.95686 8.28019 9.57908 7.99797 10.4413 7.84686L10.228 6.54019C9.30352 6.6913 8.5613 6.98019 8.0013 7.40686V2.86019C8.0013 2.62019 8.0613 2.39797 8.1813 2.19352C8.3013 1.98908 8.46352 1.82686 8.66797 1.70686C8.87241 1.58686 9.09464 1.52686 9.33464 1.52686C9.57464 1.52686 9.79686 1.58686 10.0013 1.70686C10.2057 1.82686 10.368 1.98908 10.488 2.19352C10.608 2.39797 10.668 2.62019 10.668 2.86019V5.04686L11.1746 5.18019C11.6724 5.30463 12.0457 5.53797 12.2946 5.88019C12.5435 6.22241 12.668 6.66019 12.668 7.19352C12.668 7.52241 12.5813 7.82241 12.408 8.09352C12.2346 8.36463 12.0057 8.56686 11.7213 8.70019C11.1702 8.95797 10.6724 9.12686 10.228 9.20686L10.4413 10.5135C10.7346 10.4691 11.0324 10.3935 11.3346 10.2869Z" fill="white"/>
</svg>
